<svg aria-hidden="true" style="position: absolute; width: 0; height: 0; overflow: hidden;" version="1.1" xmlns="http://www.w3.org/2000/svg" xmlns:xlink="http://www.w3.org/1999/xlink">
<defs>
<symbol id="icon-camera" viewBox="0 0 24 24">
<title>camera</title>
<path d="M24 19v-11c0-0.828-0.337-1.58-0.879-2.121s-1.293-0.879-2.121-0.879h-3.465l-1.703-2.555c-0.182-0.27-0.486-0.445-0.832-0.445h-6c-0.326 0.002-0.64 0.158-0.832 0.445l-1.703 2.555h-3.465c-0.828 0-1.58 0.337-2.121 0.879s-0.879 1.293-0.879 2.121v11c0 0.828 0.337 1.58 0.879 2.121s1.293 0.879 2.121 0.879h18c0.828 0 1.58-0.337 2.121-0.879s0.879-1.293 0.879-2.121zM22 19c0 0.276-0.111 0.525-0.293 0.707s-0.431 0.293-0.707 0.293h-18c-0.276 0-0.525-0.111-0.707-0.293s-0.293-0.431-0.293-0.707v-11c0-0.276 0.111-0.525 0.293-0.707s0.431-0.293 0.707-0.293h4c0.346 0 0.65-0.175 0.832-0.445l1.703-2.555h4.93l1.703 2.555c0.192 0.287 0.506 0.443 0.832 0.445h4c0.276 0 0.525 0.111 0.707 0.293s0.293 0.431 0.293 0.707zM17 13c0-1.38-0.561-2.632-1.464-3.536s-2.156-1.464-3.536-1.464-2.632 0.561-3.536 1.464-1.464 2.156-1.464 3.536 0.561 2.632 1.464 3.536 2.156 1.464 3.536 1.464 2.632-0.561 3.536-1.464 1.464-2.156 1.464-3.536zM15 13c0 0.829-0.335 1.577-0.879 2.121s-1.292 0.879-2.121 0.879-1.577-0.335-2.121-0.879-0.879-1.292-0.879-2.121 0.335-1.577 0.879-2.121 1.292-0.879 2.121-0.879 1.577 0.335 2.121 0.879 0.879 1.292 0.879 2.121z"></path>
</symbol>
<symbol id="icon-check" viewBox="0 0 24 24">
<title>check</title>
<path d="M19.293 5.293l-10.293 10.293-4.293-4.293c-0.391-0.391-1.024-0.391-1.414 0s-0.391 1.024 0 1.414l5 5c0.391 0.391 1.024 0.391 1.414 0l11-11c0.391-0.391 0.391-1.024 0-1.414s-1.024-0.391-1.414 0z"></path>
</symbol>
<symbol id="icon-chevrons-right" viewBox="0 0 24 24">
<title>chevrons-right</title>
<path d="M13.707 17.707l5-5c0.391-0.391 0.391-1.024 0-1.414l-5-5c-0.391-0.391-1.024-0.391-1.414 0s-0.391 1.024 0 1.414l4.293 4.293-4.293 4.293c-0.391 0.391-0.391 1.024 0 1.414s1.024 0.391 1.414 0zM6.707 17.707l5-5c0.391-0.391 0.391-1.024 0-1.414l-5-5c-0.391-0.391-1.024-0.391-1.414 0s-0.391 1.024 0 1.414l4.293 4.293-4.293 4.293c-0.391 0.391-0.391 1.024 0 1.414s1.024 0.391 1.414 0z"></path>
</symbol>
<symbol id="icon-menu" viewBox="0 0 24 24">
<title>menu</title>
<path d="M3 13h18c0.552 0 1-0.448 1-1s-0.448-1-1-1h-18c-0.552 0-1 0.448-1 1s0.448 1 1 1zM3 7h18c0.552 0 1-0.448 1-1s-0.448-1-1-1h-18c-0.552 0-1 0.448-1 1s0.448 1 1 1zM3 19h18c0.552 0 1-0.448 1-1s-0.448-1-1-1h-18c-0.552 0-1 0.448-1 1s0.448 1 1 1z"></path>
</symbol>
<symbol id="icon-type" viewBox="0 0 24 24">
<title>type</title>
<path d="M11 5v14h-2c-0.552 0-1 0.448-1 1s0.448 1 1 1h6c0.552 0 1-0.448 1-1s-0.448-1-1-1h-2v-14h6v2c0 0.552 0.448 1 1 1s1-0.448 1-1v-3c0-0.552-0.448-1-1-1h-16c-0.552 0-1 0.448-1 1v3c0 0.552 0.448 1 1 1s1-0.448 1-1v-2z"></path>
</symbol>
<symbol id="icon-close" viewBox="0 0 24 24">
<title>close</title>
<path d="M18.984 6.422l-5.578 5.578 5.578 5.578-1.406 1.406-5.578-5.578-5.578 5.578-1.406-1.406 5.578-5.578-5.578-5.578 1.406-1.406 5.578 5.578 5.578-5.578z"></path>
</symbol>
<symbol id="icon-laptop_mac" viewBox="0 0 24 24">
<title>laptop_mac</title>
<path d="M12 18.984c0.563 0 0.984-0.422 0.984-0.984s-0.422-0.984-0.984-0.984-0.984 0.422-0.984 0.984 0.422 0.984 0.984 0.984zM3.984 5.016v10.969h16.031v-10.969h-16.031zM20.016 18h3.984c0 1.078-0.938 2.016-2.016 2.016h-19.969c-1.078 0-2.016-0.938-2.016-2.016h3.984c-1.078 0-1.969-0.938-1.969-2.016v-10.969c0-1.078 0.891-2.016 1.969-2.016h16.031c1.078 0 1.969 0.938 1.969 2.016v10.969c0 1.078-0.891 2.016-1.969 2.016z"></path>
</symbol>
<symbol id="icon-envelope" viewBox="0 0 32 32">
<title>envelope</title>
<path d="M29 4h-26c-1.657 0-3 1.343-3 3v18c0 1.656 1.343 3 3 3h26c1.657 0 3-1.344 3-3v-18c0-1.657-1.343-3-3-3zM2.741 25.99l-0.731-0.732 8.249-8.248 0.731 0.732-8.249 8.248zM29.259 25.99l-8.249-8.248 0.731-0.732 8.249 8.248-0.731 0.732zM17 19.325v0.675h-2v-0.675l-12.997-12.050 1.272-1.272 12.725 11.798 12.725-11.798 1.272 1.272-12.997 12.050z"></path>
</symbol>
<symbol id="icon-grid" viewBox="0 0 32 32">
<title>grid</title>
<path d="M7 12h-6c-0.553 0-1 0.447-1 1v6c0 0.553 0.447 1 1 1h6c0.553 0 1-0.447 1-1v-6c0-0.553-0.447-1-1-1zM6 17c0 0.553-0.447 1-1 1h-2c-0.553 0-1-0.447-1-1v-2c0-0.553 0.447-1 1-1h2c0.553 0 1 0.447 1 1v2zM7 0h-6c-0.553 0-1 0.447-1 1v6c0 0.553 0.447 1 1 1h6c0.553 0 1-1.447 1-2v-5c0-0.553-0.447-1-1-1zM6 5c0 0.553-0.447 1-1 1h-2c-0.553 0-1-0.447-1-1v-2c0-0.553 0.447-1 1-1h2c0.553 0 1 0.447 1 1v2zM7 24h-6c-0.553 0-1 0.447-1 1v6c0 0.553 0.447 1 1 1h6c0.553 0 1-0.447 1-1v-6c0-0.553-0.447-1-1-1zM6 29c0 0.553-0.447 1-1 1h-2c-0.553 0-1-0.447-1-1v-2c0-0.553 0.447-1 1-1h2c0.553 0 1 0.447 1 1v2zM19 12h-6c-0.553 0-1 0.447-1 1v6c0 0.553 0.447 1 1 1h6c0.553 0 1-0.447 1-1v-6c0-0.553-0.447-1-1-1zM18 17c0 0.553-0.447 1-1 1h-2c-0.553 0-1-0.447-1-1v-2c0-0.553 0.447-1 1-1h2c0.553 0 1 0.447 1 1v2zM19 24h-6c-0.553 0-1 0.447-1 1v6c0 0.553 0.447 1 1 1h6c0.553 0 1-0.447 1-1v-6c0-0.553-0.447-1-1-1zM18 29c0 0.553-0.447 1-1 1h-2c-0.553 0-1-0.447-1-1v-2c0-0.553 0.447-1 1-1h2c0.553 0 1 0.447 1 1v2zM31 12h-6c-0.553 0-1 0.447-1 1v6c0 0.553 0.447 1 1 1h6c0.553 0 1-0.447 1-1v-6c0-0.553-0.447-1-1-1zM30 17c0 0.553-0.447 1-1 1h-2c-0.553 0-1-0.447-1-1v-2c0-0.553 0.447-1 1-1h2c0.553 0 1 0.447 1 1v2zM31 0h-6c-0.553 0-1 0.447-1 1v6c0 0.553 0.447 1 1 1h6c0.553 0 1-1.447 1-2v-5c0-0.553-0.447-1-1-1zM30 5c0 0.553-0.447 1-1 1h-2c-0.553 0-1-0.447-1-1v-2c0-0.553 0.447-1 1-1h2c0.553 0 1 0.447 1 1v2zM19 0h-6c-0.553 0-1 0.447-1 1v6c0 0.553 0.447 1 1 1h6c0.553 0 1-1.447 1-2v-5c0-0.553-0.447-1-1-1zM18 5c0 0.553-0.447 1-1 1h-2c-0.553 0-1-0.447-1-1v-2c0-0.553 0.447-1 1-1h2c0.553 0 1 0.447 1 1v2zM31 24h-6c-0.553 0-1 0.447-1 1v6c0 0.553 0.447 1 1 1h6c0.553 0 1-0.447 1-1v-6c0-0.553-0.447-1-1-1zM30 29c0 0.553-0.447 1-1 1h-2c-0.553 0-1-0.447-1-1v-2c0-0.553 0.447-1 1-1h2c0.553 0 1 0.447 1 1v2z"></path>
</symbol>
<symbol id="icon-home" viewBox="0 0 32 32">
<title>home</title>
<path d="M32 18.451l-16-12.42-16 12.42v-5.064l16-12.42 16 12.42zM28 18v12h-8v-8h-8v8h-8v-12l12-9z"></path>
</symbol>
<symbol id="icon-eyedropper" viewBox="0 0 32 32">
<title>eyedropper</title>
<path d="M30.828 1.172c-1.562-1.562-4.095-1.562-5.657 0l-5.379 5.379-3.793-3.793-4.243 4.243 3.326 3.326-14.754 14.754c-0.252 0.252-0.358 0.592-0.322 0.921h-0.008v5c0 0.552 0.448 1 1 1h5c0 0 0.083 0 0.125 0 0.288 0 0.576-0.11 0.795-0.329l14.754-14.754 3.326 3.326 4.243-4.243-3.793-3.793 5.379-5.379c1.562-1.562 1.562-4.095 0-5.657zM5.409 30h-3.409v-3.409l14.674-14.674 3.409 3.409-14.674 14.674z"></path>
</symbol>
<symbol id="icon-woman" viewBox="0 0 32 32">
<title>woman</title>
<path d="M18 3c0 1.657-1.343 3-3 3s-3-1.343-3-3c0-1.657 1.343-3 3-3s3 1.343 3 3z"></path>
<path d="M22.469 16l1.531-1.109-4.165-6.441c-0.185-0.281-0.499-0.45-0.835-0.45h-8c-0.336 0-0.65 0.169-0.835 0.45l-4.165 6.441 1.531 1.109 3.458-4.487 1.202 2.804-4.191 7.683h3.833l0.667 10h2v-10h1v10h2l0.667-10h3.833l-4.191-7.683 1.202-2.804 3.458 4.487z"></path>
</symbol>
<symbol id="icon-github" viewBox="0 0 32 32">
<title>github</title>
<path d="M16 0.395c-8.836 0-16 7.163-16 16 0 7.069 4.585 13.067 10.942 15.182 0.8 0.148 1.094-0.347 1.094-0.77 0-0.381-0.015-1.642-0.022-2.979-4.452 0.968-5.391-1.888-5.391-1.888-0.728-1.849-1.776-2.341-1.776-2.341-1.452-0.993 0.11-0.973 0.11-0.973 1.606 0.113 2.452 1.649 2.452 1.649 1.427 2.446 3.743 1.739 4.656 1.33 0.143-1.034 0.558-1.74 1.016-2.14-3.554-0.404-7.29-1.777-7.29-7.907 0-1.747 0.625-3.174 1.649-4.295-0.166-0.403-0.714-2.030 0.155-4.234 0 0 1.344-0.43 4.401 1.64 1.276-0.355 2.645-0.532 4.005-0.539 1.359 0.006 2.729 0.184 4.008 0.539 3.054-2.070 4.395-1.64 4.395-1.64 0.871 2.204 0.323 3.831 0.157 4.234 1.026 1.12 1.647 2.548 1.647 4.295 0 6.145-3.743 7.498-7.306 7.895 0.574 0.497 1.085 1.47 1.085 2.963 0 2.141-0.019 3.864-0.019 4.391 0 0.426 0.288 0.925 1.099 0.768 6.354-2.118 10.933-8.113 10.933-15.18 0-8.837-7.164-16-16-16z"></path>
</symbol>
<symbol id="icon-html-five" viewBox="0 0 32 32">
<title>html-five</title>
<path d="M1.892 0l2.567 28.801 11.524 3.199 11.554-3.204 2.572-28.796h-28.216zM24.52 9.42h-13.517l0.322 3.617h12.874l-0.97 10.844-7.245 2.008-7.237-2.008-0.495-5.547h3.547l0.252 2.82 3.933 1.060 0.009-0.002 3.935-1.062 0.408-4.58h-12.242l-0.953-10.681h17.694l-0.316 3.532z"></path>
</symbol>
<symbol id="icon-css3" viewBox="0 0 32 32">
<title>css3</title>
<path d="M4.762 1.516l-1.074 5.373h21.867l-0.684 3.47h-21.881l-1.059 5.372h21.865l-1.219 6.127-8.813 2.919-7.638-2.919 0.523-2.658h-5.372l-1.278 6.448 12.632 4.834 14.563-4.834 4.805-24.133z"></path>
</symbol>
<symbol id="icon-pencil" viewBox="0 0 20 20">
<title>pencil</title>
<path d="M14.69 2.661c-1.894-1.379-3.242-1.349-3.754-1.266-0.144 0.023-0.265 0.106-0.35 0.223l-6.883 9.497c-0.277 0.382-0.437 0.836-0.462 1.307l-0.296 5.624c-0.021 0.405 0.382 0.698 0.76 0.553l5.256-2.010c0.443-0.17 0.828-0.465 1.106-0.849l6.88-9.494c0.089-0.123 0.125-0.273 0.1-0.423-0.084-0.526-0.487-1.802-2.357-3.162zM8.977 15.465l-2.043 0.789c-0.080 0.031-0.169 0.006-0.221-0.062-0.263-0.335-0.576-0.667-1.075-1.030-0.499-0.362-0.911-0.558-1.31-0.706-0.080-0.030-0.131-0.106-0.126-0.192l0.122-2.186 0.549-0.755c0 0 1.229-0.169 2.833 0.998 1.602 1.166 1.821 2.388 1.821 2.388l-0.55 0.756z"></path>
</symbol>
<symbol id="icon-ruler" viewBox="0 0 20 20">
<title>ruler</title>
<path d="M14.249 0.438l-13.811 13.813c-0.584 0.584-0.584 1.538 0.002 2.124l3.185 3.187c0.584 0.584 1.541 0.586 2.124 0.002l13.813-13.813c0.584-0.585 0.584-1.541 0-2.125l-3.186-3.188c-0.587-0.586-1.542-0.583-2.127 0zM3.929 15.312l-0.759 0.759-1.896-1.897 0.759-0.759 1.896 1.897zM6.965 15.312l-0.759 0.759-3.415-3.415 0.759-0.76 3.415 3.416zM6.965 12.276l-0.759 0.759-1.898-1.896 0.76-0.76 1.897 1.897zM8.483 10.758l-0.759 0.759-1.896-1.896 0.759-0.76 1.896 1.897zM11.518 10.758l-0.759 0.759-3.414-3.414 0.759-0.759 3.414 3.414zM11.518 7.723l-0.759 0.759-1.896-1.896 0.759-0.759 1.896 1.896zM13.036 6.206l-0.759 0.759-1.897-1.897 0.759-0.759 1.897 1.897zM16.072 6.206l-0.76 0.759-3.414-3.415 0.759-0.76 3.415 3.416zM16.071 3.171l-0.759 0.759-1.896-1.898 0.759-0.758 1.896 1.897z"></path>
</symbol>
<symbol id="icon-tools" viewBox="0 0 20 20">
<title>tools</title>
<path d="M3.135 6.89c0.933-0.725 1.707-0.225 2.74 0.971 0.116 0.135 0.272-0.023 0.361-0.1 0.088-0.078 1.451-1.305 1.518-1.361 0.066-0.059 0.146-0.169 0.041-0.292-0.107-0.123-0.494-0.625-0.743-0.951-1.808-2.365 4.946-3.969 3.909-3.994-0.528-0.014-2.646-0.039-2.963-0.004-1.283 0.135-2.894 1.334-3.705 1.893-1.061 0.726-1.457 1.152-1.522 1.211-0.3 0.262-0.048 0.867-0.592 1.344-0.575 0.503-0.934 0.122-1.267 0.414-0.165 0.146-0.627 0.492-0.759 0.607-0.133 0.117-0.157 0.314-0.021 0.471 0 0 1.264 1.396 1.37 1.52 0.105 0.122 0.391 0.228 0.567 0.071 0.177-0.156 0.632-0.553 0.708-0.623 0.078-0.066-0.050-0.861 0.358-1.177zM8.843 7.407c-0.12-0.139-0.269-0.143-0.397-0.029l-1.434 1.252c-0.113 0.1-0.129 0.283-0.027 0.4l8.294 9.439c0.194 0.223 0.53 0.246 0.751 0.053l0.97-0.813c0.222-0.195 0.245-0.533 0.052-0.758l-8.209-9.544zM19.902 3.39c-0.074-0.494-0.33-0.391-0.463-0.182-0.133 0.211-0.721 1.102-0.963 1.506-0.24 0.4-0.832 1.191-1.934 0.41-1.148-0.811-0.749-1.377-0.549-1.758 0.201-0.383 0.818-1.457 0.907-1.59 0.089-0.135-0.015-0.527-0.371-0.363s-2.523 1.025-2.823 2.26c-0.307 1.256 0.257 2.379-0.85 3.494l-1.343 1.4 1.349 1.566 1.654-1.57c0.394-0.396 1.236-0.781 1.998-0.607 1.633 0.369 2.524-0.244 3.061-1.258 0.482-0.906 0.402-2.814 0.327-3.308zM2.739 17.053c-0.208 0.209-0.208 0.549 0 0.758l0.951 0.93c0.208 0.209 0.538 0.121 0.746-0.088l4.907-4.824-1.503-1.714-5.101 4.938z"></path>
</symbol>
<symbol id="icon-xing" viewBox="0 0 20 20">
<title>xing</title>
<path d="M17.703 1h-2.828c-0.223 0-0.553 0.105-0.69 0.381s-0.31 0.619-0.31 0.619l-5 10 3 6c0 0 0.172 0.344 0.31 0.619s0.467 0.381 0.69 0.381h2.828c0.5 0 0.48-0.381 0.355-0.631s-0.183-0.369-0.183-0.369l-3-6 5-10c0 0 0.059-0.119 0.184-0.369s0.144-0.631-0.356-0.631zM6.815 5.381c-0.137-0.276-0.467-0.381-0.69-0.381h-2.828c-0.5 0-0.48 0.381-0.355 0.631s0.183 0.369 0.183 0.369l1.25 2.5-2.25 4.5c0 0-0.059 0.119-0.184 0.369s-0.144 0.631 0.356 0.631h2.828c0.223 0 0.553-0.106 0.691-0.381s0.309-0.619 0.309-0.619l2.25-4.5-1.25-2.5c0 0-0.172-0.344-0.31-0.619z"></path>
</symbol>
<symbol id="icon-linkedin" viewBox="0 0 20 20">
<title>linkedin</title>
<path d="M5 3c0 1.062-0.71 1.976-2.001 1.976-1.215 0-1.999-0.862-1.999-1.924 0-1.090 0.76-2.052 2-2.052s1.976 0.91 2 2zM1 19v-13h4v13h-4z"></path>
<path d="M7 10.444c0-1.545-0.051-2.836-0.102-3.951h3.594l0.178 1.723h0.076c0.506-0.811 1.746-2 3.822-2 2.532 0 4.432 1.695 4.432 5.342v7.442h-4v-6.861c0-1.594-0.607-2.81-2-2.81-1.062 0-1.594 0.86-1.873 1.569-0.102 0.254-0.127 0.608-0.127 0.963v7.139h-4v-8.556z"></path>
</symbol>
</defs>
</svg>
